REM MD5 0492b3b60b1ed6d556b1a183fa6e7b53
FILE "Official U.S. PlayStation Magazine Demo Disc 48 (USA).bin" BINARY
  TRACK 01 MODE2/2352
    INDEX 01 00:00:00
  TRACK 02 AUDIO
    INDEX 00 25:40:37
    INDEX 01 25:42:37
  TRACK 03 AUDIO
    INDEX 00 29:24:00
    INDEX 01 29:26:00
REM LEADOUT 29:31:71
